{
  "accessors": [
    {
      "bufferView": 2,
      "componentType": 5126,
      "count": 1158,
      "max": [
        5.024840354919434,
        4.68506383895874,
        3.7474818229675293
      ],
      "min": [
        -5.024840354919434,
        0.0,
        -10.708479881286621
      ],
      "type": "VEC3"
    },
    {
      "bufferView": 2,
      "byteOffset": 13896,
      "componentType": 5126,
      "count": 1158,
      "max": [
        1.0,
        1.0,
        1.0
      ],
      "min": [
        -1.0,
        -1.0,
        -1.0
      ],
      "type": "VEC3"
    },
    {
      "bufferView": 1,
      "componentType": 5126,
      "count": 1158,
      "max": [
        1.0,
        1.0
      ],
      "min": [
        -5.886859355541674e-08,
        0.017575860023498535
      ],
      "type": "VEC2"
    },
    {
      "bufferView": 1,
      "byteOffset": 9264,
      "componentType": 5126,
      "count": 1158,
      "max": [
        1.0,
        1.0
      ],
      "min": [
        -5.886859355541674e-08,
        0.017575860023498535
      ],
      "type": "VEC2"
    },
    {
      "bufferView": 0,
      "componentType": 5125,
      "count": 2892,
      "type": "SCALAR"
    },
    {
      "bufferView": 2,
      "byteOffset": 27792,
      "componentType": 5126,
      "count": 136,
      "max": [
        5.024840354919434,
        0.0,
        3.7474818229675293
      ],
      "min": [
        -5.024840354919434,
        0.0,
        -10.708479881286621
      ],
      "type": "VEC3"
    },
    {
      "bufferView": 2,
      "byteOffset": 29424,
      "componentType": 5126,
      "count": 136,
      "max": [
        0.0,
        1.0,
        0.0
      ],
      "min": [
        0.0,
        1.0,
        0.0
      ],
      "type": "VEC3"
    },
    {
      "bufferView": 3,
      "componentType": 5126,
      "count": 136,
      "max": [
        1.541006440675119e-06,
        0.0,
        -1.0,
        -1.0
      ],
      "min": [
        0.0,
        0.0,
        -1.0,
        -1.0
      ],
      "type": "VEC4"
    },
    {
      "bufferView": 1,
      "byteOffset": 18528,
      "componentType": 5126,
      "count": 136,
      "max": [
        0.48846518993377686,
        1.0
      ],
      "min": [
        6.587150824799437e-09,
        0.6604225635528564
      ],
      "type": "VEC2"
    },
    {
      "bufferView": 1,
      "byteOffset": 19616,
      "componentType": 5126,
      "count": 136,
      "max": [
        0.48846518993377686,
        1.0
      ],
      "min": [
        6.587150824799437e-09,
        0.6604225635528564
      ],
      "type": "VEC2"
    },
    {
      "bufferView": 1,
      "byteOffset": 20704,
      "componentType": 5126,
      "count": 136,
      "max": [
        0.48846518993377686,
        1.0
      ],
      "min": [
        6.587150824799437e-09,
        0.6604225635528564
      ],
      "type": "VEC2"
    },
    {
      "bufferView": 0,
      "byteOffset": 11568,
      "componentType": 5125,
      "count": 504,
      "type": "SCALAR"
    },
    {
      "bufferView": 2,
      "byteOffset": 31056,
      "componentType": 5126,
      "count": 1158,
      "max": [
        5.024840354919434,
        4.68506383895874,
        3.7474818229675293
      ],
      "min": [
        -5.024840354919434,
        0.0,
        -10.708479881286621
      ],
      "type": "VEC3"
    },
    {
      "bufferView": 2,
      "byteOffset": 44952,
      "componentType": 5126,
      "count": 1158,
      "max": [
        1.0,
        1.0,
        1.0
      ],
      "min": [
        -1.0,
        -1.0,
        -1.0
      ],
      "type": "VEC3"
    },
    {
      "bufferView": 1,
      "byteOffset": 21792,
      "componentType": 5126,
      "count": 1158,
      "max": [
        1.0,
        1.0
      ],
      "min": [
        -5.886859355541674e-08,
        0.017575860023498535
      ],
      "type": "VEC2"
    },
    {
      "bufferView": 1,
      "byteOffset": 31056,
      "componentType": 5126,
      "count": 1158,
      "max": [
        1.0,
        1.0
      ],
      "min": [
        -5.886859355541674e-08,
        0.017575860023498535
      ],
      "type": "VEC2"
    },
    {
      "bufferView": 0,
      "byteOffset": 13584,
      "componentType": 5125,
      "count": 2892,
      "type": "SCALAR"
    }
  ],
  "asset": {
    "extras": {
      "author": "abhayexe (https://sketchfab.com/abhayexe)",
      "license": "SKETCHFAB Standard (https://sketchfab.com/licenses)",
      "source": "https://sketchfab.com/3d-models/brutalism-scene-baked-93ba334484ca44058f6dde30a3d4f066",
      "title": "Brutalism Scene Baked"
    },
    "generator": "Sketchfab-17.15.0",
    "version": "2.0"
  },
  "bufferViews": [
    {
      "buffer": 0,
      "byteLength": 25152,
      "name": "floatBufferViews",
      "target": 34963
    },
    {
      "buffer": 0,
      "byteLength": 40320,
      "byteOffset": 25152,
      "byteStride": 8,
      "name": "floatBufferViews",
      "target": 34962
    },
    {
      "buffer": 0,
      "byteLength": 58848,
      "byteOffset": 65472,
      "byteStride": 12,
      "name": "floatBufferViews",
      "target": 34962
    },
    {
      "buffer": 0,
      "byteLength": 2176,
      "byteOffset": 124320,
      "byteStride": 16,
      "name": "floatBufferViews",
      "target": 34962
    }
  ],
  "buffers": [
    {
      "byteLength": 126496,
      "uri": "scene.bin"
    }
  ],
  "extensionsUsed": [
    "KHR_materials_transmission"
  ],
  "images": [
    {
      "uri": "textures/Material.002_baseColor.png"
    },
    {
      "uri": "textures/Material.003_normal.png"
    }
  ],
  "materials": [
    {
      "doubleSided": true,
      "emissiveFactor": [
        1.0,
        1.0,
        1.0
      ],
      "emissiveTexture": {
        "index": 0
      },
      "name": "Material.002",
      "pbrMetallicRoughness": {
        "baseColorTexture": {
          "index": 0
        },
        "metallicFactor": 0.0,
        "roughnessFactor": 0.5
      }
    },
    {
      "alphaMode": "BLEND",
      "doubleSided": true,
      "emissiveFactor": [
        1.0,
        1.0,
        1.0
      ],
      "emissiveTexture": {
        "index": 0
      },
      "extensions": {
        "KHR_materials_transmission": {
          "transmissionFactor": 1.0
        }
      },
      "name": "Material.003",
      "normalTexture": {
        "index": 1,
        "scale": 0.40051497269114605
      },
      "pbrMetallicRoughness": {
        "baseColorFactor": [
          1.0,
          1.0,
          1.0,
          0.25
        ],
        "baseColorTexture": {
          "index": 0
        },
        "metallicFactor": 0.0,
        "roughnessFactor": 0.0
      }
    }
  ],
  "meshes": [
    {
      "name": "Object_0",
      "primitives": [
        {
          "attributes": {
            "NORMAL": 1,
            "POSITION": 0,
            "TEXCOORD_0": 2,
            "TEXCOORD_1": 3
          },
          "indices": 4,
          "material": 0,
          "mode": 4
        }
      ]
    },
    {
      "name": "Object_1",
      "primitives": [
        {
          "attributes": {
            "NORMAL": 6,
            "POSITION": 5,
            "TANGENT": 7,
            "TEXCOORD_0": 8,
            "TEXCOORD_1": 9,
            "TEXCOORD_2": 10
          },
          "indices": 11,
          "material": 1,
          "mode": 4
        }
      ]
    },
    {
      "name": "Object_2",
      "primitives": [
        {
          "attributes": {
            "NORMAL": 13,
            "POSITION": 12,
            "TEXCOORD_0": 14,
            "TEXCOORD_1": 15
          },
          "indices": 16,
          "material": 0,
          "mode": 4
        }
      ]
    }
  ],
  "nodes": [
    {
      "children": [
        1
      ],
      "matrix": [
        1.0,
        0.0,
        0.0,
        0.0,
        0.0,
        2.220446049250313e-16,
        -1.0,
        0.0,
        0.0,
        1.0,
        2.220446049250313e-16,
        0.0,
        0.0,
        0.0,
        0.0,
        1.0
      ],
      "name": "Sketchfab_model"
    },
    {
      "children": [
        2
      ],
      "name": "root"
    },
    {
      "children": [
        3,
        5,
        7
      ],
      "matrix": [
        1.0,
        0.0,
        0.0,
        0.0,
        0.0,
        2.220446049250313e-16,
        1.0,
        0.0,
        0.0,
        -1.0,
        2.220446049250313e-16,
        0.0,
        0.0,
        0.0,
        0.0,
        1.0
      ],
      "name": "GLTF_SceneRootNode"
    },
    {
      "children": [
        4
      ],
      "matrix": [
        2.0,
        0.0,
        0.0,
        0.0,
        0.0,
        2.0,
        0.0,
        0.0,
        0.0,
        0.0,
        2.0,
        0.0,
        0.0,
        0.0,
        0.0,
        1.0
      ],
      "name": "Plane_0"
    },
    {
      "mesh": 0,
      "name": "Object_4"
    },
    {
      "children": [
        6
      ],
      "matrix": [
        2.0,
        0.0,
        0.0,
        0.0,
        0.0,
        2.0,
        0.0,
        0.0,
        0.0,
        0.0,
        2.0,
        0.0,
        0.0,
        0.0,
        0.0,
        1.0
      ],
      "name": "Plane.001_1"
    },
    {
      "mesh": 1,
      "name": "Object_6"
    },
    {
      "children": [
        8
      ],
      "matrix": [
        2.0,
        -0.0,
        -0.0,
        -0.0,
        -0.0,
        -2.0,
        -0.0,
        -0.0,
        -0.0,
        -0.0,
        2.0,
        -0.0,
        0.0,
        0.0,
        0.0,
        1.0
      ],
      "name": "Plane.002_2"
    },
    {
      "mesh": 2,
      "name": "Object_8"
    }
  ],
  "samplers": [
    {
      "magFilter": 9729,
      "minFilter": 9987,
      "wrapS": 10497,
      "wrapT": 10497
    }
  ],
  "scene": 0,
  "scenes": [
    {
      "name": "Sketchfab_Scene",
      "nodes": [
        0
      ]
    }
  ],
  "textures": [
    {
      "sampler": 0,
      "source": 0
    },
    {
      "sampler": 0,
      "source": 1
    }
  ]
}
